<svg width="91" height="56" viewBox="0 0 91 56" fill="none" xmlns="http://www.w3.org/2000/svg">
<path d="M45.0952 22.5522H47.666L51.2622 31.2827L54.8584 22.5522H57.4292L52.4121 34H50.1123L45.0952 22.5522ZM58.4692 31.2754C58.4692 30.8604 58.5596 30.4819 58.7402 30.1401C58.9209 29.7983 59.1919 29.5054 59.5532 29.2612C59.9146 29.0122 60.3638 28.8218 60.9009 28.6899C61.4429 28.5532 62.0728 28.4849 62.7905 28.4849C63.3228 28.4849 63.8818 28.5239 64.4678 28.6021C65.0586 28.6802 65.6665 28.7998 66.2915 28.9609C66.2671 28.6875 66.1841 28.436 66.0425 28.2065C65.9009 27.9722 65.7031 27.772 65.4492 27.606C65.2002 27.4351 64.8975 27.3032 64.541 27.2104C64.1895 27.1177 63.7891 27.0713 63.3398 27.0713C63.0957 27.0713 62.8271 27.0859 62.5342 27.1152C62.2412 27.1445 61.9385 27.1885 61.626 27.2471C61.3135 27.3057 61.0034 27.3789 60.6958 27.4668C60.3931 27.5547 60.1099 27.6597 59.8462 27.7817L59.187 26.002C59.5142 25.8848 59.8633 25.7773 60.2344 25.6797C60.6104 25.582 60.9937 25.499 61.3843 25.4307C61.7749 25.3574 62.1655 25.3013 62.5562 25.2622C62.9468 25.2231 63.3252 25.2036 63.6914 25.2036C65.3076 25.2036 66.5088 25.6162 67.2949 26.4414C68.0811 27.2666 68.4741 28.5312 68.4741 30.2354V34H66.3062V33.187C66.0815 33.3188 65.835 33.4434 65.5664 33.5605C65.3027 33.6777 65.0146 33.7803 64.7021 33.8682C64.3896 33.9561 64.0527 34.0244 63.6914 34.0732C63.335 34.127 62.9565 34.1538 62.5562 34.1538C61.8823 34.1538 61.2891 34.0806 60.7764 33.9341C60.2686 33.7876 59.8438 33.585 59.502 33.3262C59.1602 33.0674 58.9014 32.7646 58.7256 32.418C58.5547 32.0664 58.4692 31.6855 58.4692 31.2754ZM60.7544 31.2021C60.7544 31.3438 60.791 31.4805 60.8643 31.6123C60.9375 31.7393 61.0547 31.854 61.2158 31.9565C61.377 32.0542 61.582 32.1348 61.8311 32.1982C62.085 32.2568 62.3901 32.2861 62.7466 32.2861C63.1274 32.2861 63.4961 32.252 63.8525 32.1836C64.209 32.1152 64.541 32.0249 64.8486 31.9126C65.1562 31.8003 65.4346 31.6709 65.6836 31.5244C65.9326 31.3779 66.1401 31.2266 66.3062 31.0703V30.6895C65.9741 30.5967 65.6445 30.5186 65.3174 30.4551C64.9951 30.3916 64.6851 30.3428 64.3872 30.3086C64.0942 30.2695 63.8159 30.2427 63.5522 30.228C63.2935 30.2134 63.0664 30.2061 62.8711 30.2061C62.4658 30.2061 62.1289 30.2329 61.8604 30.2866C61.5918 30.3403 61.3745 30.4136 61.2085 30.5063C61.0425 30.5942 60.9253 30.6992 60.8569 30.8213C60.7886 30.9434 60.7544 31.0703 60.7544 31.2021ZM72.6489 26.9834H70.5615V25.3574H72.6489V22.6694H74.8169V25.3574H76.9043V26.9834H74.8169V34H72.6489V26.9834ZM78.4204 31.2754C78.4204 30.8604 78.5107 30.4819 78.6914 30.1401C78.8721 29.7983 79.1431 29.5054 79.5044 29.2612C79.8657 29.0122 80.3149 28.8218 80.8521 28.6899C81.394 28.5532 82.0239 28.4849 82.7417 28.4849C83.2739 28.4849 83.833 28.5239 84.4189 28.6021C85.0098 28.6802 85.6177 28.7998 86.2427 28.9609C86.2183 28.6875 86.1353 28.436 85.9937 28.2065C85.8521 27.9722 85.6543 27.772 85.4004 27.606C85.1514 27.4351 84.8486 27.3032 84.4922 27.2104C84.1406 27.1177 83.7402 27.0713 83.291 27.0713C83.0469 27.0713 82.7783 27.0859 82.4854 27.1152C82.1924 27.1445 81.8896 27.1885 81.5771 27.2471C81.2646 27.3057 80.9546 27.3789 80.647 27.4668C80.3442 27.5547 80.061 27.6597 79.7974 27.7817L79.1382 26.002C79.4653 25.8848 79.8145 25.7773 80.1855 25.6797C80.5615 25.582 80.9448 25.499 81.3354 25.4307C81.7261 25.3574 82.1167 25.3013 82.5073 25.2622C82.8979 25.2231 83.2764 25.2036 83.6426 25.2036C85.2588 25.2036 86.46 25.6162 87.2461 26.4414C88.0322 27.2666 88.4253 28.5312 88.4253 30.2354V34H86.2573V33.187C86.0327 33.3188 85.7861 33.4434 85.5176 33.5605C85.2539 33.6777 84.9658 33.7803 84.6533 33.8682C84.3408 33.9561 84.0039 34.0244 83.6426 34.0732C83.2861 34.127 82.9077 34.1538 82.5073 34.1538C81.8335 34.1538 81.2402 34.0806 80.7275 33.9341C80.2197 33.7876 79.7949 33.585 79.4531 33.3262C79.1113 33.0674 78.8525 32.7646 78.6768 32.418C78.5059 32.0664 78.4204 31.6855 78.4204 31.2754ZM80.7056 31.2021C80.7056 31.3438 80.7422 31.4805 80.8154 31.6123C80.8887 31.7393 81.0059 31.854 81.167 31.9565C81.3281 32.0542 81.5332 32.1348 81.7822 32.1982C82.0361 32.2568 82.3413 32.2861 82.6978 32.2861C83.0786 32.2861 83.4473 32.252 83.8037 32.1836C84.1602 32.1152 84.4922 32.0249 84.7998 31.9126C85.1074 31.8003 85.3857 31.6709 85.6348 31.5244C85.8838 31.3779 86.0913 31.2266 86.2573 31.0703V30.6895C85.9253 30.5967 85.5957 30.5186 85.2686 30.4551C84.9463 30.3916 84.6362 30.3428 84.3384 30.3086C84.0454 30.2695 83.7671 30.2427 83.5034 30.228C83.2446 30.2134 83.0176 30.2061 82.8223 30.2061C82.417 30.2061 82.0801 30.2329 81.8115 30.2866C81.543 30.3403 81.3257 30.4136 81.1597 30.5063C80.9937 30.5942 80.8765 30.6992 80.8081 30.8213C80.7397 30.9434 80.7056 31.0703 80.7056 31.2021Z" fill="white"/>
<mask id="mask0_5_416" style="mask-type:alpha" maskUnits="userSpaceOnUse" x="0" y="0" width="45" height="53">
<path d="M0.841022 6.81141L12.683 -7.65939e-05L25.6234 46.3868L15.9151 50.2089L0.841022 6.81141Z" fill="#6C63FF"/>
<path d="M21.2576 34.57L24.0269 34.57L24.4526 35.6219L22.7218 36.9579L20.9909 35.6219L21.2576 34.57Z" fill="#6C63FF"/>
<path d="M44.1465 8.2583L32.3169 1.40782L19.2525 48.1405L28.868 52.3003L44.1465 8.2583Z" fill="#6C63FF"/>
</mask>
<g mask="url(#mask0_5_416)">
<ellipse cx="22.3756" cy="23.9345" rx="24.2315" ry="24.6387" fill="white"/>
</g>
</svg>
