<svg width="241" height="291" viewBox="0 0 241 291" fill="none" xmlns="http://www.w3.org/2000/svg">
<g clip-path="url(#clip0_6_1140)">
<path d="M219.372 257.643C219.303 257.643 219.234 257.643 219.166 257.642L37.3477 255.519C27.0136 255.386 18.6899 246.889 18.7626 236.563C5.92658 193.983 0.270886 160.453 0.425543 127.853C0.587008 93.8279 7.30958 59.2163 21.5807 18.9358C21.7465 8.67952 30.1562 0.421143 40.4015 0.421143C40.4678 0.421143 40.5341 0.421557 40.6004 0.422174L222.419 2.54933C232.776 2.68292 241.111 11.2157 240.999 21.5703L240.631 53.1078L240.358 53.1109L238.187 239.062C238.054 249.35 229.633 257.643 219.372 257.643ZM40.4013 1.26688C30.5935 1.26688 22.5482 9.18973 22.4254 19.0169L22.4245 19.0869L22.401 19.1528C-4.85188 96.0424 -5.58736 152.887 19.591 236.38L19.6096 236.442L19.609 236.507C19.5059 246.396 27.468 254.546 37.358 254.673L219.175 256.796C219.241 256.797 219.307 256.798 219.372 256.798C229.172 256.798 237.214 248.877 237.341 239.051L239.345 67.4338L239.354 66.5887L239.587 46.9654L239.856 46.9632L240.153 21.5608C240.261 11.672 232.3 3.52267 222.408 3.39506L40.5911 1.26792C40.5283 1.2673 40.4639 1.26688 40.4013 1.26688Z" fill="#F2F2F2"/>
<path d="M203.22 181.445L203.207 182.291H99.3498V181.445H203.22Z" fill="#F2F2F2"/>
<path d="M203.427 163.473L203.418 164.319H99.3498V163.473H203.427Z" fill="#F2F2F2"/>
<path d="M203.638 145.501L203.63 146.346H99.3498V145.501H203.638Z" fill="#F2F2F2"/>
<path d="M202.987 201.066L202.979 201.912H97.0325V113.151L97.8782 113.16V166.276C97.8782 171.715 99.1257 176.861 101.35 181.445C101.49 181.728 101.629 182.011 101.777 182.291C107.57 193.446 119.233 201.066 132.672 201.066H202.987Z" fill="#F2F2F2"/>
<path d="M56.0652 245.192C45.9197 245.062 37.7941 236.745 37.9011 226.599C13.7382 146.474 12.225 89.4951 40.7149 9.10825C40.7719 5.90911 41.6729 2.78194 43.3267 0.0430229L39.7489 0.00104447C29.6032 -0.105942 21.2852 8.01961 21.1548 18.165C-7.33525 98.552 -5.82197 155.531 18.341 235.655C18.2338 245.801 26.3595 254.119 36.5051 254.249L218.323 256.375C224.898 256.429 230.997 252.957 234.306 247.276L56.0652 245.192Z" fill="#F2F2F2"/>
<path d="M83.1182 149.374C83.4082 151.195 81.9242 152.892 80.0816 152.839L73.9663 166.622L69.7382 165.868L77.121 149.551C77.2417 148.192 78.2741 147.041 79.6829 146.831C81.3338 146.585 82.8719 147.723 83.1182 149.374Z" fill="#FFB6B6"/>
<path d="M50.0212 191.719C51.7663 193.524 54.5935 193.718 56.569 192.168L71.0376 180.818L78.2062 158.526L72.9943 156.115L63.2024 175.645L50.7503 184.286C48.2679 186.009 47.9209 189.546 50.0212 191.719Z" fill="#CBC8FF"/>
<path d="M53.1681 183.978C52.7917 183.72 52.39 183.492 51.9756 183.297C51.9841 183.187 51.9883 183.073 51.9883 182.963C52.0094 181.851 51.7895 180.739 51.3413 179.72C51.4005 180.616 51.1256 181.529 50.5844 182.244C50.4913 182.371 50.3898 182.489 50.2799 182.604C50.2503 182.633 50.2207 182.663 50.1911 182.688C49.5948 182.553 48.9774 182.489 48.3643 182.498C47.6834 182.51 47.0069 182.604 46.3345 182.735C45.493 182.895 44.6557 183.119 43.8184 183.305C43.7676 183.318 43.7211 183.327 43.6704 183.339C43.2856 182.295 42.6809 181.339 41.8943 180.553C42.2707 181.364 42.3468 182.316 42.1016 183.179C42.0593 183.331 42.0085 183.479 41.9451 183.623C41.0317 183.716 40.1183 183.69 39.2429 183.437C38.8708 183.331 38.5198 183.187 38.1773 183.018C36.9679 182.426 35.8769 181.546 34.6294 181.018C33.9571 180.73 33.2466 180.553 32.5193 180.481C31.9104 176.992 32.0795 173.897 33.9486 171.66C33.9486 166.556 38.0885 162.416 43.1925 162.416L47.4297 163.887L51.7092 165.376C53.7221 170.746 56.9232 175.474 53.1681 183.978Z" fill="#2F2E41"/>
<path d="M59.9898 280.665L62.8882 282.04L69.6875 271.265L65.4097 269.237L59.9898 280.665Z" fill="#FFB6B6"/>
<path d="M66.9581 288.406L63.8631 283.044L64.8468 280.97L63.8232 280.556L60.6474 279.279L59.8697 278.964L55.7848 286L57.9599 287.029L59.3209 285.161L59.3387 287.685L65.1011 290.418C65.8174 290.757 66.6735 290.45 67.0116 289.736C67.2134 289.311 67.1934 288.814 66.9581 288.406Z" fill="#2F2E41"/>
<path d="M102.793 239.629L105.105 237.406L97.4366 227.231L94.0245 230.513L102.793 239.629Z" fill="#FFB6B6"/>
<path d="M112.499 235.854L106.389 236.85L104.798 235.195L104.048 236.006L101.729 238.523L101.159 239.139L106.292 245.451L108.026 243.781L106.761 241.847L109.127 242.724L113.724 238.303C114.294 237.753 114.31 236.844 113.763 236.275C113.436 235.936 112.964 235.778 112.499 235.854Z" fill="#2F2E41"/>
<path d="M53.8235 221.195L42.406 218.657L42.4826 222.131C42.4826 222.131 30.5656 231.344 41.5603 240.224C52.5549 249.104 71.1612 249.95 71.1612 249.95L62.7038 274.476L66.9325 276.168L83.5821 253.431C85.824 249.355 85.1903 244.218 81.8505 240.98C81.2044 240.353 80.4644 239.801 79.6187 239.378C74.5442 236.841 61.0123 231.766 61.0123 231.766L54.2464 225.001L53.8235 221.195Z" fill="#2F2E41"/>
<path d="M53.4007 227.538L76.8515 212.614C79.4829 210.94 82.9101 211.237 85.2143 213.339L102.877 232.612L98.225 236.418L80.0415 223.732C80.0415 223.732 69.4698 235.572 66.5097 235.572C63.5496 235.572 53.4007 227.538 53.4007 227.538Z" fill="#2F2E41"/>
<path d="M40.7145 228.743C40.7145 228.743 33.5122 224.661 36.9019 221.205C40.2917 217.748 40.7145 206.82 40.7145 206.82L35.2172 190.262L39.4459 187.302L40.7145 182.291L48.3262 181.868V185.61L55.9511 194.052C58.5423 196.921 59.3249 200.992 57.9823 204.617L55.9379 210.137C55.9379 210.137 61.8581 225.783 56.7836 227.897C51.7092 230.012 40.7145 228.743 40.7145 228.743Z" fill="#CBC8FF"/>
<path d="M78.8055 168.176L58.8049 150.328C55.7839 147.649 55.5065 143.028 58.1854 140.007C60.8642 136.986 65.4851 136.709 68.5061 139.388L68.5405 139.418L88.5411 157.267C91.5451 159.965 91.7932 164.587 89.0954 167.591C86.4096 170.582 81.813 170.843 78.8055 168.176Z" fill="#F2F2F2"/>
<path d="M46.3151 180.467C50.514 180.467 53.918 177.063 53.918 172.864C53.918 168.665 50.514 165.261 46.3151 165.261C42.1161 165.261 38.7122 168.665 38.7122 172.864C38.7122 177.063 42.1161 180.467 46.3151 180.467Z" fill="#FFB6B6"/>
<path d="M50.2756 171.296C50.2207 170.412 50.005 169.537 49.6498 168.725C49.709 169.621 49.4341 170.535 48.8929 171.249C48.8802 171.266 48.8675 171.279 48.859 171.296C47.4614 171.975 45.1051 171.591 42.8289 171.296V162.838H47.4805C52.0475 161.299 55.8068 164.648 55.9379 171.296C53.7468 171.693 51.6931 171.91 50.2756 171.296Z" fill="#2F2E41"/>
<path d="M46.3345 182.735C45.493 182.895 44.6557 183.119 43.8184 183.305C43.7677 183.318 43.7211 183.327 43.6704 183.339C43.2856 182.295 42.6809 181.339 41.8943 180.553C42.2707 181.365 42.3468 182.316 42.1016 183.179C42.0593 183.331 42.0085 183.479 41.9451 183.623C41.0317 183.716 40.1183 183.69 39.243 183.437C38.8708 183.331 38.5198 183.187 38.1773 183.018V164.953H47.0576C43.6112 170.822 43.1207 176.743 46.3345 182.735Z" fill="#2F2E41"/>
<path d="M44.6566 161.592C44.4943 161.084 43.8756 160.842 43.3485 160.924C42.8214 161.006 42.3673 161.327 41.935 161.64C42.3561 161.181 42.1419 160.373 41.6265 160.024C41.1112 159.675 40.4223 159.699 39.8275 159.882C39.2326 160.065 38.6909 160.388 38.1098 160.611C37.5288 160.834 36.8664 160.952 36.291 160.715C36.5149 161.42 36.9481 162.057 37.5212 162.524C36.8433 162.405 36.1086 162.757 35.7755 163.359C35.4423 163.961 35.5351 164.77 35.9958 165.281C36.5247 165.868 37.4192 166.006 38.1875 165.822C38.9557 165.637 39.6281 165.185 40.2758 164.732C40.9234 164.28 41.5811 163.812 42.3391 163.589L39.8478 165.156C41.1201 164.626 42.3546 164.005 43.5386 163.299C43.8552 163.11 44.1746 162.91 44.406 162.623C44.6373 162.336 44.7687 161.943 44.6566 161.592Z" fill="#2F2E41"/>
<path d="M32.9158 237.557C32.8584 235.679 34.5391 234.347 36.2574 234.002C38.4406 233.565 40.6693 234.691 42.5191 235.714C45.8248 237.542 49.6601 235.729 53.1922 237.948C58.4061 241.224 59.4831 236.317 59.1547 230.524C58.9126 226.251 59.9475 222.054 60.1679 217.851C60.3801 213.803 61.4824 209.69 64.9142 207.175C66.3549 206.12 68.1495 205.495 69.9384 205.865C71.849 206.261 73.3753 207.634 75.2163 208.232C78.6423 209.344 82.2455 207.843 84.8148 205.554C87.8033 202.892 89.2623 199.147 90.2892 195.371C91.354 191.455 92.0043 187.355 93.9565 183.748C95.6224 180.67 98.2393 177.829 101.846 177.242C105.379 176.667 108.765 178.399 111.815 179.95C114.954 181.547 118.199 183.277 121.796 183.426C129.502 183.745 135.455 177.188 138.795 170.954C142.607 163.838 144.818 155.203 151.591 150.172C154.502 148.01 158.195 146.5 161.873 147.106C165.59 147.719 168.306 150.415 170.774 153.05C173.303 155.749 175.813 158.408 179.239 159.963C182.601 161.488 186.358 162.06 190.02 161.576C191.788 161.343 193.481 160.858 195.117 160.152C195.864 159.829 195.219 158.735 194.477 159.056C190.888 160.606 186.803 160.875 183.017 159.942C179.213 159.005 176.181 156.877 173.495 154.091C171.036 151.541 168.723 148.637 165.506 146.998C162.252 145.341 158.521 145.383 155.162 146.72C151.757 148.077 148.806 150.476 146.569 153.36C143.971 156.71 142.242 160.637 140.505 164.476C137.365 171.413 133.34 179.606 125.307 181.762C117.701 183.803 112.074 177.073 104.979 176.005C101.491 175.48 98.1901 176.687 95.7202 179.179C93.1631 181.758 91.685 185.169 90.7085 188.615C89.512 192.837 88.8959 197.36 86.6988 201.226C84.962 204.282 81.7451 207.116 78.0896 207.328C75.9957 207.449 74.3922 206.483 72.6024 205.55C70.9888 204.708 69.3041 204.275 67.4906 204.629C64.0939 205.292 61.4549 208.293 60.1578 211.353C56.9583 218.901 61.3642 228.599 55.1009 235.053C53.9561 236.233 52.4878 237.12 50.8299 237.3C48.6089 237.542 46.5321 236.508 44.6494 235.459C41.3972 233.648 37.2796 231.225 33.7152 233.74C32.4503 234.632 31.5989 235.979 31.6472 237.557C31.6721 238.371 32.9408 238.375 32.9158 237.557Z" fill="#3F3D56"/>
<path d="M159.541 149.729C161.643 149.729 163.347 148.026 163.347 145.924C163.347 143.822 161.643 142.118 159.541 142.118C157.439 142.118 155.735 143.822 155.735 145.924C155.735 148.026 157.439 149.729 159.541 149.729Z" fill="#CBC8FF"/>
<path d="M124.02 185.674C126.122 185.674 127.826 183.97 127.826 181.868C127.826 179.766 126.122 178.062 124.02 178.062C121.918 178.062 120.214 179.766 120.214 181.868C120.214 183.97 121.918 185.674 124.02 185.674Z" fill="#CBC8FF"/>
<path d="M102.319 66.8075C104.653 61.9639 110.708 59.2664 115.87 60.7706C118.778 61.618 121.217 63.5649 123.891 64.9878C126.564 66.4106 129.881 67.2942 132.571 65.9015C137.194 63.5077 136.912 56.3605 140.933 53.0538C143.61 50.8529 147.537 50.9558 150.845 51.9876C154.153 53.0195 157.178 54.8412 160.507 55.8014C166.703 57.5884 173.748 56.0856 178.675 51.9261C178.725 51.8845 178.773 51.8426 178.821 51.8004C181.261 49.6513 185.083 51.4223 184.994 54.6721L184.37 77.3354H102.756L102.319 66.8075Z" fill="#F2F2F2"/>
<path d="M173.946 62.7237C174.215 62.6146 174.215 62.2378 173.946 62.1287C172.07 61.3676 169.968 60.2841 168.363 59.1055C168.106 58.9168 167.762 59.1769 167.87 59.4768L168.784 62.0032H153.145V62.849H168.785L167.87 65.3763C167.762 65.6762 168.105 65.9363 168.363 65.7476C169.968 64.569 172.07 63.4853 173.946 62.7237Z" fill="#3F3D56"/>
<path d="M138.76 58.6503C138.908 58.4006 138.68 58.1008 138.4 58.1768C136.446 58.7071 134.118 59.1169 132.126 59.1512C131.807 59.1566 131.691 59.5717 131.959 59.7447L134.216 61.202L121.769 70.6711L122.281 71.3442L134.728 61.8751L135.531 64.44C135.626 64.7443 136.057 64.7434 136.148 64.4375C136.712 62.5272 137.728 60.3925 138.76 58.6503Z" fill="#3F3D56"/>
<path d="M181.558 57.4511C185.562 57.4511 188.807 54.2055 188.807 50.2019C188.807 46.1982 185.562 42.9526 181.558 42.9526C177.554 42.9526 174.309 46.1982 174.309 50.2019C174.309 54.2055 177.554 57.4511 181.558 57.4511Z" fill="#CBC8FF"/>
<path opacity="0.7" d="M146.037 57.4511C150.04 57.4511 153.286 54.2055 153.286 50.2019C153.286 46.1982 150.04 42.9526 146.037 42.9526C142.033 42.9526 138.788 46.1982 138.788 50.2019C138.788 54.2055 142.033 57.4511 146.037 57.4511Z" fill="#CBC8FF"/>
<path opacity="0.25" d="M113.899 64.2169C117.902 64.2169 121.148 60.9714 121.148 56.9677C121.148 52.9641 117.902 49.7185 113.899 49.7185C109.895 49.7185 106.649 52.9641 106.649 56.9677C106.649 60.9714 109.895 64.2169 113.899 64.2169Z" fill="#CBC8FF"/>
<path d="M201.839 91.7949L89.3585 90.9887C85.7431 90.9628 82.7831 93.8806 82.7572 97.496C82.7313 101.112 85.6491 104.071 89.2646 104.097L201.745 104.904C205.361 104.929 208.321 102.012 208.347 98.3962C208.373 94.7807 205.455 91.8208 201.839 91.7949Z" fill="#F2F2F2"/>
<path d="M72.555 99.1348C74.1899 99.1348 75.5151 97.8095 75.5151 96.1747C75.5151 94.5399 74.1899 93.2146 72.555 93.2146C70.9202 93.2146 69.5949 94.5399 69.5949 96.1747C69.5949 97.8095 70.9202 99.1348 72.555 99.1348Z" fill="#F2F2F2"/>
<path d="M201.839 19.061L89.3585 18.2548C85.7431 18.2289 82.7831 21.1467 82.7572 24.7622C82.7313 28.3776 85.6491 31.3376 89.2646 31.3635L201.745 32.1696C205.361 32.1955 208.321 29.2777 208.347 25.6623C208.373 22.0468 205.455 19.0869 201.839 19.061Z" fill="#F2F2F2"/>
<path d="M72.555 26.4009C74.1899 26.4009 75.5151 25.0756 75.5151 23.4408C75.5151 21.806 74.1899 20.4807 72.555 20.4807C70.9202 20.4807 69.5949 21.806 69.5949 23.4408C69.5949 25.0756 70.9202 26.4009 72.555 26.4009Z" fill="#F2F2F2"/>
<path d="M60.9418 260.341H42.5196C40.9711 260.341 39.7114 259.082 39.7114 257.533V239.111C39.7114 237.562 40.9711 236.303 42.5196 236.303H60.9418C62.4903 236.303 63.7501 237.562 63.7501 239.111V257.533C63.7501 259.082 62.4903 260.341 60.9418 260.341Z" fill="white"/>
<path d="M60.9418 260.341H42.5196C40.9711 260.341 39.7114 259.082 39.7114 257.533V239.111C39.7114 237.562 40.9711 236.303 42.5196 236.303H60.9418C62.4903 236.303 63.7501 237.562 63.7501 239.111V257.533C63.7501 259.082 62.4903 260.341 60.9418 260.341ZM42.5196 236.752C41.2168 236.752 40.1607 237.808 40.1607 239.111V257.533C40.1607 258.836 41.2168 259.892 42.5196 259.892H55.6486C59.8748 259.892 63.3008 256.466 63.3008 252.24V239.111C63.3008 237.808 62.2446 236.752 60.9418 236.752H42.5196Z" fill="#E6E6E6"/>
<path d="M196.104 241.664C196.978 241.719 197.461 240.634 196.8 240.001L196.734 239.74C196.743 239.719 196.752 239.698 196.76 239.677C197.644 237.57 200.638 237.585 201.514 239.695C202.291 241.567 203.281 243.443 203.525 245.423C203.634 246.297 203.585 247.187 203.391 248.045C205.213 244.065 206.172 239.72 206.172 235.35C206.172 234.252 206.112 233.154 205.989 232.059C205.888 231.163 205.748 230.272 205.568 229.39C204.593 224.621 202.482 220.079 199.436 216.286C197.972 215.485 196.752 214.234 196.014 212.735C195.749 212.194 195.542 211.612 195.443 211.02C195.61 211.042 196.071 208.504 195.946 208.349C196.178 207.996 196.594 207.821 196.847 207.477C198.108 205.767 199.846 206.066 200.753 208.39C202.691 209.368 202.709 210.989 201.52 212.549C200.764 213.542 200.66 214.885 199.996 215.947C200.065 216.034 200.136 216.119 200.204 216.206C201.456 217.812 202.539 219.539 203.452 221.352C203.194 219.337 203.575 216.909 204.224 215.343C204.964 213.56 206.349 212.058 207.569 210.516C209.035 208.664 212.041 209.473 212.299 211.82C212.301 211.843 212.304 211.866 212.306 211.888C212.125 211.991 211.947 212.099 211.774 212.214C210.785 212.868 211.126 214.402 212.299 214.583L212.325 214.587C212.26 215.24 212.148 215.887 211.984 216.523C213.549 222.577 210.17 224.782 205.344 224.881C205.238 224.936 205.134 224.99 205.027 225.042C205.516 226.419 205.907 227.831 206.196 229.262C206.456 230.526 206.636 231.805 206.737 233.088C206.863 234.708 206.852 236.336 206.715 237.953L206.723 237.895C207.07 236.115 208.037 234.451 209.441 233.299C211.532 231.581 214.487 230.948 216.743 229.567C217.829 228.902 219.221 229.761 219.032 231.021L219.022 231.081C218.686 231.217 218.359 231.376 218.042 231.553C217.861 231.656 217.683 231.764 217.51 231.879C216.52 232.533 216.862 234.067 218.034 234.248L218.061 234.252C218.08 234.255 218.096 234.257 218.116 234.26C217.539 235.628 216.736 236.899 215.731 237.994C214.752 243.278 210.548 243.78 206.052 242.241H206.049C205.557 244.382 204.839 246.474 203.916 248.468H196.295C196.268 248.383 196.244 248.296 196.219 248.211C196.924 248.255 197.634 248.214 198.328 248.086C197.762 247.392 197.197 246.693 196.631 245.999C196.618 245.985 196.607 245.972 196.596 245.958C196.309 245.603 196.02 245.251 195.733 244.896L195.733 244.895C195.715 243.805 195.846 242.719 196.104 241.664Z" fill="#F2F2F2"/>
<path d="M43.508 239.153C41.983 238.117 41.7627 235.873 43.0629 234.567L37.208 220.671L40.6533 218.107L47.4866 234.662C48.3939 235.68 48.5258 237.221 47.7141 238.391C46.7629 239.763 44.8798 240.104 43.508 239.153Z" fill="#FFB6B6"/>
<path d="M39.1976 188.578C36.6956 188.369 34.4406 190.085 33.9751 192.553L30.5656 210.623L41.1374 232.189L46.6347 229.652L39.8688 209.354L43.5449 194.65C44.2778 191.718 42.2089 188.829 39.1976 188.578Z" fill="#CBC8FF"/>
<path d="M44.0866 243.118C43.7368 243.118 43.4523 243.402 43.4523 243.752V244.175C43.4523 244.525 43.7368 244.809 44.0866 244.809H58.8871C59.2369 244.809 59.5214 244.525 59.5214 244.175V243.752C59.5214 243.402 59.2369 243.118 58.8871 243.118H44.0866Z" fill="#E6E6E6"/>
<path d="M44.0866 247.769C43.7368 247.769 43.4523 248.054 43.4523 248.404V248.827C43.4523 249.176 43.7368 249.461 44.0866 249.461H58.8871C59.2369 249.461 59.5214 249.176 59.5214 248.827V248.404C59.5214 248.054 59.2369 247.769 58.8871 247.769H44.0866Z" fill="#E6E6E6"/>
<path d="M44.0866 252.421C43.7368 252.421 43.4523 252.705 43.4523 253.055V253.478C43.4523 253.828 43.7368 254.112 44.0866 254.112H58.8871C59.2369 254.112 59.5214 253.828 59.5214 253.478V253.055C59.5214 252.705 59.2369 252.421 58.8871 252.421H44.0866Z" fill="#E6E6E6"/>
</g>
<defs>
<clipPath id="clip0_6_1140">
<rect width="241" height="290.556" fill="white"/>
</clipPath>
</defs>
</svg>
